:version 1.10
:name ASF
:units
  mass 1
  length 1
  angle deg
:documentation
  ASF file generated by Kaydara
:root
  axis xyz
  order  tx ty tz rx ry rz
  position 0 0 0
  orientation 0 0 0
:bonedata
  begin
    id 1
    name RightUpLegDummy
    direction -0.718183 -0.695806 0.00816078
    length 4.904
    axis 0 0 0 xyz
  end
  begin
    id 2
    name RightUpLeg
    direction -0.0736652 -0.994202 0.0783343
    length 17.4976
    axis -2.72909 -3.00389 -4.00133 xyz
    dof rx ry rz
  end
  begin
    id 3
    name RightLeg
    direction -0.0389037 -0.994596 -0.0962598
    length 16.5821
    axis 3.95836 -18.5909 -4.46993 xyz
    dof rx ry rz
  end
  begin
    id 4
    name RightFoot
    direction -0.311643 -0.412678 0.855906
    length 3.77069
    axis -1.99483 -18.8351 -3.27644 xyz
    dof rx ry rz
  end
  begin
    id 5
    name RightToes
    direction -0.317852 0.0389852 0.947339
    length 3.85082
    axis -2.00228 -18.1713 -3.25211 xyz
    dof rx ry rz
  end
  begin
    id 6
    name SpineDummy
    direction 8.3039e-015 1 4.44677e-016
    length 4.6813
    axis 0 0 0 xyz
  end
  begin
    id 7
    name Spine
    direction -0.000262373 0.999988 0.00493267
    length 10.1015
    axis -0.00246081 0.00062579 0.0150362 xyz
    dof rx ry rz
  end
  begin
    id 8
    name Spine1
    direction 0 0 0
    length 0
    axis -0.00349562 0.000650293 0.0196666 xyz
    dof rx ry rz
  end
  begin
    id 9
    name HEadDummy
    direction -0.000343232 0.999999 0.00123745
    length 3.43865
    axis -0.00349562 0.000650293 0.0196666 xyz
  end
  begin
    id 10
    name HEad
    direction -0.0461221 0.980933 0.188796
    length 5.12695
    axis -0.00351404 -7.04812 0.0199272 xyz
    dof rx ry rz
  end
  begin
    id 11
    name LeftShoulder1Dummy
    direction 0.998904 -0.0399089 -0.0244534
    length 3.5433
    axis -0.00349562 0.000650293 0.0196666 xyz
  end
  begin
    id 12
    name LeftShoulder1
    direction 0.99951 1.64443e-005 0.0312999
    length 4.05031
    axis -0.00349562 0.000650293 0.0196666 xyz
    dof rx ry rz
  end
  begin
    id 13
    name LeftArm
    direction 0.984791 0.0515299 0.165927
    length 12.9126
    axis -64.823 -10.7743 5.20463 xyz
    dof rx ry rz
  end
  begin
    id 14
    name LeftForeArm
    direction 0.984968 0.0534808 0.16425
    length 10.8596
    axis -30.0462 -7.70601 1.87451 xyz
    dof rx ry rz
  end
  begin
    id 15
    name LeftHand
    direction 0.975871 0.0289682 0.216418
    length 6.62295
    axis -20.1348 -6.98077 1.86072 xyz
    dof rx ry rz
  end
  begin
    id 16
    name RightShoulderDummy
    direction -0.998877 -0.0405946 -0.0244307
    length 3.5433
    axis -0.00349562 0.000650293 0.0196666 xyz
  end
  begin
    id 17
    name RightShoulder
    direction -0.998933 -0.0249743 -0.0388558
    length 4.05031
    axis -0.0205316 -4.02113 1.41395 xyz
    dof rx ry rz
  end
  begin
    id 18
    name RightArm
    direction -0.997559 0.068664 0.0127103
    length 12.9638
    axis -67.3882 1.84188 -6.15987 xyz
    dof rx ry rz
  end
  begin
    id 19
    name RightForeArm
    direction -0.991508 0.0912848 0.0926241
    length 10.8312
    axis -22.1975 3.41087 -4.28711 xyz
    dof rx ry rz
  end
  begin
    id 20
    name RightHand
    direction -0.989262 0.0600788 0.133232
    length 6.57864
    axis -12.2911 2.17515 -4.39675 xyz
    dof rx ry rz
  end
  begin
    id 21
    name LeftUpLegDummy
    direction 0.718183 -0.695806 0.00816078
    length 4.904
    axis 0 0 0 xyz
  end
  begin
    id 22
    name LeftUpLeg
    direction 0.0831398 -0.99469 0.0606531
    length 17.4976
    axis -1.71016 2.29552 4.63832 xyz
    dof rx ry rz
  end
  begin
    id 23
    name LeftLeg
    direction 0.0498442 -0.991778 -0.117862
    length 16.5821
    axis 5.13757 15.5727 5.13348 xyz
    dof rx ry rz
  end
  begin
    id 24
    name LeftFoot
    direction 0.269026 -0.433896 0.85986
    length 3.77069
    axis -0.576502 15.6961 4.10267 xyz
    dof rx ry rz
  end
  begin
    id 25
    name LeftToes
    direction 0.277311 0.0251143 0.960452
    length 3.85048
    axis -0.576502 15.6961 4.10267 xyz
    dof rx ry rz
  end
:hierarchy
  begin
    root RightUpLegDummy SpineDummy LeftUpLegDummy
    RightUpLegDummy RightUpLeg
    RightUpLeg RightLeg
    RightLeg RightFoot
    RightFoot RightToes
    SpineDummy Spine
    Spine Spine1
    Spine1 HEadDummy LeftShoulder1Dummy RightShoulderDummy
    HEadDummy HEad
    LeftShoulder1Dummy LeftShoulder1
    LeftShoulder1 LeftArm
    LeftArm LeftForeArm
    LeftForeArm LeftHand
    RightShoulderDummy RightShoulder
    RightShoulder RightArm
    RightArm RightForeArm
    RightForeArm RightHand
    LeftUpLegDummy LeftUpLeg
    LeftUpLeg LeftLeg
    LeftLeg LeftFoot
    LeftFoot LeftToes
  end

:SAMPLES-PER-SECOND 30
:FULLY-SPECIFIED
:DEGREES
64
root  -4.50095 38.942 101.459 176.197 10.821 -175.58
RightUpLeg  -0.264522 -1.51821 8.86743
RightLeg  21.8504 -0.872488 -4.71472
RightFoot  -17.6837 0.00390135 -1.33245
RightToes  3.97569e-016 -3.18055e-015 -2.98177e-016
Spine  2.0914 0.958497 10.9129
Spine1  11.275 1.72424 2.86504
HEad  2.97923 5.14667 -3.72754
LeftShoulder1  -3.88251e-019 9.70628e-020 -3.87848e-018
LeftArm  -27.763 62.8238 -75.1552
LeftForeArm  -0.672216 -18.8219 -1.80256
LeftHand  -0.771205 -3.78869 10.3994
RightShoulder  8.45834 10.9495 39.1675
RightArm  10.7143 -31.4527 23.1639
RightForeArm  9.53429 15.9825 -4.15603
RightHand  -0.58902 0.650739 -11.1093
LeftUpLeg  -22.8919 -2.05814 2.27483
LeftLeg  51.2479 2.73368 23.106
LeftFoot  -5.26933 0.301917 -4.62516
LeftToes  4.86531e-011 4.41684e-011 -2.86034e-011
65
root  -4.40176 38.9613 101.023 176.438 11.3616 -176.009
RightUpLeg  0.454315 -1.52841 8.34529
RightLeg  21.2464 -0.250617 -4.32093
RightFoot  -18.2474 0.0133986 -1.01206
RightToes  3.97569e-016 -3.18055e-015 -2.98177e-016
Spine  1.56645 1.21409 11.2458
Spine1  11.1085 1.99221 2.17741
HEad  3.7089 5.1014 -4.16497
LeftShoulder1  -3.88251e-019 9.70628e-020 -3.87848e-018
LeftArm  -29.0116 65.331 -76.1639
LeftForeArm  0.158896 -18.5492 -1.9275
LeftHand  -0.765744 -3.67553 10.4578
RightShoulder  8.34245 10.8824 38.7626
RightArm  16.9537 -30.6521 25.2714
RightForeArm  0.880094 18.7611 -6.92612
RightHand  -0.56796 -0.180477 -12.3373
LeftUpLeg  -24.4723 -1.0028 1.03988
LeftLeg  49.8786 2.90577 22.214
LeftFoot  -5.31827 0.314755 -4.84049
LeftToes  4.86531e-011 4.41684e-011 -2.86034e-011
66
root  -4.31049 38.988 100.556 176.722 11.8256 -176.447
RightUpLeg  1.22345 -1.64659 7.74334
RightLeg  20.5219 0.452534 -3.8593
RightFoot  -18.7189 0.021843 -0.781586
RightToes  3.97569e-016 -3.18055e-015 -2.98177e-016
Spine  1.16626 1.46006 11.5436
Spine1  10.8799 2.24703 1.36744
HEad  3.71999 5.01287 -4.77814
LeftShoulder1  -3.88251e-019 9.70628e-020 -3.87848e-018
LeftArm  -30.9034 67.5923 -77.2595
LeftForeArm  1.43322 -17.7293 -2.15423
LeftHand  -0.792028 -3.95032 10.4896
RightShoulder  8.22559 10.8093 38.3627
RightArm  22.6172 -29.8533 27.4403
RightForeArm  -7.23942 21.3923 -10.4409
RightHand  -0.605721 -0.381015 -13.6529
LeftUpLeg  -25.741 0.0273169 -0.134569
LeftLeg  47.0077 3.68092 20.9625
LeftFoot  -3.65988 0.348989 -4.36052
LeftToes  4.86531e-011 4.41684e-011 -2.86034e-011
67
root  -4.22353 39.0192 100.058 177.053 12.2692 -176.733
RightUpLeg  2.14358 -1.70348 7.31178
RightLeg  19.5598 1.0076 -3.44261
RightFoot  -18.9445 0.020292 -0.799736
RightToes  3.97569e-016 -3.18055e-015 -2.98177e-016
Spine  0.65365 1.81192 11.8392
Spine1  10.9632 2.56968 0.626329
HEad  3.06205 4.94783 -5.24656
LeftShoulder1  -3.88251e-019 9.70628e-020 -3.87848e-018
LeftArm  -33.3468 69.4126 -78.6188
LeftForeArm  2.8836 -16.3765 -2.35925
LeftHand  -0.796543 -4.09999 10.3794
RightShoulder  8.15215 10.7566 38.1247
RightArm  23.9414 -28.6951 29.1973
RightForeArm  -9.93522 24.2247 -12.6997
RightHand  -0.716865 0.711097 -13.4021
LeftUpLeg  -26.4318 1.03235 -0.973654
LeftLeg  42.6414 4.41333 18.7854
LeftFoot  -1.34811 0.380635 -3.73045
LeftToes  4.86531e-011 4.41684e-011 -2.86034e-011
68
root  -4.1387 39.0603 99.5085 177.556 12.7362 -176.951
RightUpLeg  3.14913 -1.63816 6.96827
RightLeg  18.2144 1.45219 -3.02084
RightFoot  -19.031 0.0221424 -0.758261
RightToes  3.97569e-016 -3.18055e-015 -2.98177e-016
Spine  -0.0465275 2.28848 11.9614
Spine1  11.1548 2.95175 0.0308177
HEad  2.33624 4.97216 -5.3746
LeftShoulder1  -3.88251e-019 9.70628e-020 -3.87848e-018
LeftArm  -35.7776 71.0376 -80.2757
LeftForeArm  3.70574 -14.9144 -2.41655
LeftHand  -0.726979 -3.59712 10.027
RightShoulder  8.14843 10.7499 38.1218
RightArm  23.5481 -27.365 30.4328
RightForeArm  -10.3606 27.1197 -14.0889
RightHand  -0.787248 1.86729 -12.3953
LeftUpLeg  -26.5521 1.93877 -1.60689
LeftLeg  36.8137 4.51134 15.5422
LeftFoot  0.250397 0.402291 -3.42682
LeftToes  4.86531e-011 4.41684e-011 -2.86034e-011
69
root  -4.05706 39.1031 98.8986 178.161 13.1869 -177.316
RightUpLeg  4.13642 -1.53802 6.46724
RightLeg  16.7128 1.94528 -2.64612
RightFoot  -19.1845 0.042615 -0.356831
RightToes  3.97569e-016 -3.18055e-015 -2.98177e-016
Spine  -0.72018 2.77836 11.8935
Spine1  11.1133 3.38348 -0.692467
HEad  1.81061 4.8939 -5.08726
LeftShoulder1  -3.88251e-019 9.70628e-020 -3.87848e-018
LeftArm  -37.74 72.6244 -81.7903
LeftForeArm  3.9792 -13.5288 -2.40384
LeftHand  -0.655924 -2.96168 9.7653
RightShoulder  8.16136 10.7589 38.1644
RightArm  23.5448 -26.4405 31.44
RightForeArm  -11.9333 29.7388 -15.4568
RightHand  -0.787321 1.74956 -12.6274
LeftUpLeg  -26.119 2.7615 -2.43445
LeftLeg  29.7672 3.49914 11.5799
LeftFoot  0.785512 0.402472 -3.28147
LeftToes  4.86531e-011 4.41684e-011 -2.86034e-011
70
root  -3.98569 39.1269 98.2205 178.576 13.6306 -177.836
RightUpLeg  5.26229 -1.55446 5.74903
RightLeg  15.4132 2.53358 -2.43065
RightFoot  -19.3865 0.0624066 0.0121452
RightToes  3.97569e-016 -3.18055e-015 -2.98177e-016
Spine  -1.2422 3.13984 11.9906
Spine1  11.0839 3.90662 -2.0005
HEad  1.33023 4.60575 -4.34564
LeftShoulder1  -3.88251e-019 9.70628e-020 -3.87848e-018
LeftArm  -39.0698 74.144 -82.6335
LeftForeArm  4.3149 -12.1648 -2.37558
LeftHand  -0.681077 -3.2321 9.81194
RightShoulder  8.0934 10.7152 37.9309
RightArm  23.384 -26.0867 32.7353
RightForeArm  -14.1399 31.9021 -16.6085
RightHand  -0.771394 0.99725 -13.7437
LeftUpLeg  -24.9163 3.7158 -3.62381
LeftLeg  22.4422 1.51719 7.85376
LeftFoot  1.48612 0.321266 -2.49189
LeftToes  4.86531e-011 4.41684e-011 -2.86034e-011
71
root  -3.93336 39.1294 97.4719 178.653 14.0323 -178.412
RightUpLeg  6.79619 -1.72504 4.83745
RightLeg  14.2156 3.11017 -2.26311
RightFoot  -19.5467 0.0624856 0.00566207
RightToes  3.97569e-016 -3.18055e-015 -2.98177e-016
Spine  -1.67233 3.25583 12.1208
Spine1  11.4276 4.37685 -3.65272
HEad  1.04566 4.40131 -3.41518
LeftShoulder1  -3.88251e-019 9.70628e-020 -3.87848e-018
LeftArm  -40.2216 75.669 -83.2369
LeftForeArm  4.63876 -10.9873 -2.29595
LeftHand  -0.731897 -4.00574 9.66084
RightShoulder  7.90725 10.5883 37.3004
RightArm  22.89 -25.8009 34.6253
RightForeArm  -15.2084 33.0761 -17.2666
RightHand  -0.762313 1.13065 -13.3487
LeftUpLeg  -23.1762 4.59438 -5.01379
LeftLeg  16.9181 -0.0767256 5.59897
LeftFoot  3.05328 -0.00857231 0.0883115
LeftToes  4.86531e-011 4.41684e-011 -2.86034e-011
72
root  -3.9045 39.0891 96.6633 178.555 14.1644 -179.058
RightUpLeg  8.46013 -2.0528 3.69008
RightLeg  13.3063 3.65693 -2.08566
RightFoot  -20.0541 0.0790103 0.238904
RightToes  3.97569e-016 -3.18055e-015 -2.98177e-016
Spine  -1.96875 3.10803 11.4938
Spine1  11.8085 4.45957 -4.5028
HEad  1.21745 4.45071 -2.9196
LeftShoulder1  -3.88251e-019 9.70628e-020 -3.87848e-018
LeftArm  -41.9605 77.0624 -84.4592
LeftForeArm  4.7403 -10.0479 -2.22848
LeftHand  -0.631003 -3.60219 8.70749
RightShoulder  7.67076 10.4236 36.4918
RightArm  22.3133 -25.1146 36.7328
RightForeArm  -14.0356 33.0153 -17.2868
RightHand  -0.748279 2.31926 -11.1546
LeftUpLeg  -21.9938 4.45579 -6.29158
LeftLeg  15.4702 0.0507003 5.28982
LeftFoot  3.82082 -0.578625 4.00422
LeftToes  4.86531e-011 4.41684e-011 -2.86034e-011
73
root  -3.89662 38.9517 95.8084 178.411 13.9108 -179.781
RightUpLeg  9.54717 -2.62103 2.35892
RightLeg  13.8014 4.28379 -2.22862
RightFoot  -21.3573 0.156311 1.21363
RightToes  3.97569e-016 -3.18055e-015 -2.98177e-016
Spine  -1.87712 2.87485 10.1799
Spine1  11.6633 4.21421 -4.22576
HEad  1.38472 4.28673 -3.14846
LeftShoulder1  -3.88251e-019 9.70628e-020 -3.87848e-018
LeftArm  -42.8744 77.594 -84.8416
LeftForeArm  5.05044 -8.80448 -2.21849
LeftHand  -0.407851 -1.74868 7.16841
RightShoulder  7.50414 10.3149 35.894
RightArm  21.8612 -24.2923 38.1489
RightForeArm  -11.7845 32.3214 -16.9771
RightHand  -0.760312 3.39318 -9.9628
LeftUpLeg  -22.0354 3.07171 -7.30706
LeftLeg  18.1779 1.33963 6.48749
LeftFoot  2.11588 -0.879817 6.62347
LeftToes  4.86531e-011 4.41684e-011 -2.86034e-011
